<?xml version="1.0" encoding="UTF-8" standalone="no"?>
<!DOCTYPE svg PUBLIC "-//W3C//DTD SVG 1.1//EN"
 "http://www.w3.org/Graphics/SVG/1.1/DTD/svg11.dtd">
<!-- Generated by graphviz version 2.47.3 (20210619.1520)
 -->
<!-- Title: dependencies Pages: 1 -->
<svg width="516pt" height="174pt"
 viewBox="0.00 0.00 516.00 173.80" xmlns="http://www.w3.org/2000/svg" xmlns:xlink="http://www.w3.org/1999/xlink">
<g id="graph0" class="graph" transform="scale(1 1) rotate(0) translate(4 169.8)">
<title>dependencies</title>
<polygon fill="white" stroke="transparent" points="-4,4 -4,-169.8 512,-169.8 512,4 -4,4"/>
<text text-anchor="middle" x="254" y="-8.2" font-family="sans-serif" font-size="14.00">dependencies</text>
<g id="clust1" class="cluster">
<title>cluster_ContinuumModule</title>
<polygon fill="none" stroke="black" stroke-dasharray="1,5" points="8,-32.8 8,-157.8 500,-157.8 500,-32.8 8,-32.8"/>
</g>
<g id="clust4" class="cluster">
<title>cluster_ContinuumModule_imports</title>
<polygon fill="none" stroke="black" points="184,-40.8 184,-92.8 492,-92.8 492,-40.8 184,-40.8"/>
</g>
<g id="clust2" class="cluster">
<title>cluster_ContinuumModule_declarations</title>
<polygon fill="none" stroke="black" points="16,-40.8 16,-92.8 176,-92.8 176,-40.8 16,-40.8"/>
</g>
<!-- ContinuumComponent -->
<g id="node1" class="node">
<title>ContinuumComponent</title>
<polygon fill="#ffffb3" stroke="black" points="168.34,-84.8 23.66,-84.8 23.66,-48.8 168.34,-48.8 168.34,-84.8"/>
<text text-anchor="middle" x="96" y="-62.6" font-family="Times,serif" font-size="14.00">ContinuumComponent</text>
</g>
<!-- ContinuumModule -->
<g id="node2" class="node">
<title>ContinuumModule</title>
<polygon fill="#8dd3c7" stroke="black" points="306.06,-149.8 303.06,-153.8 282.06,-153.8 279.06,-149.8 183.94,-149.8 183.94,-113.8 306.06,-113.8 306.06,-149.8"/>
<text text-anchor="middle" x="245" y="-127.6" font-family="Times,serif" font-size="14.00">ContinuumModule</text>
</g>
<!-- ContinuumComponent&#45;&gt;ContinuumModule -->
<g id="edge1" class="edge">
<title>ContinuumComponent&#45;&gt;ContinuumModule</title>
<path fill="none" stroke="black" d="M168.19,-66.8C179.54,-66.8 187.62,-66.8 187.62,-66.8 187.62,-66.8 187.62,-103.69 187.62,-103.69"/>
<polygon fill="black" stroke="black" points="184.12,-103.69 187.62,-113.69 191.12,-103.69 184.12,-103.69"/>
</g>
<!-- ContinuumRoutingModule -->
<g id="node3" class="node">
<title>ContinuumRoutingModule</title>
<polygon fill="#8dd3c7" stroke="black" points="483.68,-84.8 480.68,-88.8 459.68,-88.8 456.68,-84.8 316.32,-84.8 316.32,-48.8 483.68,-48.8 483.68,-84.8"/>
<text text-anchor="middle" x="400" y="-62.6" font-family="Times,serif" font-size="14.00">ContinuumRoutingModule</text>
</g>
<!-- ContinuumRoutingModule&#45;&gt;ContinuumModule -->
<g id="edge2" class="edge">
<title>ContinuumRoutingModule&#45;&gt;ContinuumModule</title>
<path fill="none" stroke="black" d="M315.96,-66.8C307.74,-66.8 302.38,-66.8 302.38,-66.8 302.38,-66.8 302.38,-103.69 302.38,-103.69"/>
<polygon fill="black" stroke="black" points="298.88,-103.69 302.38,-113.69 305.88,-103.69 298.88,-103.69"/>
</g>
<!-- MaterialModule -->
<g id="node4" class="node">
<title>MaterialModule</title>
<polygon fill="#8dd3c7" stroke="black" points="298.47,-84.8 295.47,-88.8 274.47,-88.8 271.47,-84.8 191.53,-84.8 191.53,-48.8 298.47,-48.8 298.47,-84.8"/>
<text text-anchor="middle" x="245" y="-62.6" font-family="Times,serif" font-size="14.00">MaterialModule</text>
</g>
<!-- MaterialModule&#45;&gt;ContinuumModule -->
<g id="edge3" class="edge">
<title>MaterialModule&#45;&gt;ContinuumModule</title>
<path fill="none" stroke="black" d="M245,-84.91C245,-84.91 245,-103.79 245,-103.79"/>
<polygon fill="black" stroke="black" points="241.5,-103.79 245,-113.79 248.5,-103.79 241.5,-103.79"/>
</g>
</g>
</svg>
