<?xml version="1.0" encoding="UTF-8" standalone="no"?>
<!DOCTYPE svg PUBLIC "-//W3C//DTD SVG 1.1//EN"
 "http://www.w3.org/Graphics/SVG/1.1/DTD/svg11.dtd">
<!-- Generated by graphviz version 2.47.3 (20210619.1520)
 -->
<!-- Title: dependencies Pages: 1 -->
<svg width="194pt" height="247pt"
 viewBox="0.00 0.00 194.00 246.80" xmlns="http://www.w3.org/2000/svg" xmlns:xlink="http://www.w3.org/1999/xlink">
<g id="graph0" class="graph" transform="scale(1 1) rotate(0) translate(4 242.8)">
<title>dependencies</title>
<polygon fill="white" stroke="transparent" points="-4,4 -4,-242.8 190,-242.8 190,4 -4,4"/>
<text text-anchor="middle" x="93" y="-8.2" font-family="sans-serif" font-size="14.00">dependencies</text>
<g id="clust1" class="cluster">
<title>cluster_FormatTimePipeModule</title>
<polygon fill="none" stroke="black" stroke-dasharray="1,5" points="8,-32.8 8,-230.8 178,-230.8 178,-32.8 8,-32.8"/>
</g>
<g id="clust5" class="cluster">
<title>cluster_FormatTimePipeModule_exports</title>
<polygon fill="none" stroke="black" points="28,-170.8 28,-222.8 158,-222.8 158,-170.8 28,-170.8"/>
</g>
<g id="clust2" class="cluster">
<title>cluster_FormatTimePipeModule_declarations</title>
<polygon fill="none" stroke="black" points="30,-40.8 30,-92.8 156,-92.8 156,-40.8 30,-40.8"/>
</g>
<!-- FormatTimePipe -->
<g id="node1" class="node">
<title>FormatTimePipe</title>
<polygon fill="#ffffb3" stroke="black" points="148.38,-84.8 37.62,-84.8 37.62,-48.8 148.38,-48.8 148.38,-84.8"/>
<text text-anchor="middle" x="93" y="-62.6" font-family="Times,serif" font-size="14.00">FormatTimePipe</text>
</g>
<!-- FormatTimePipeModule -->
<g id="node2" class="node">
<title>FormatTimePipeModule</title>
<polygon fill="#8dd3c7" stroke="black" points="170.43,-149.8 167.43,-153.8 146.43,-153.8 143.43,-149.8 15.57,-149.8 15.57,-113.8 170.43,-113.8 170.43,-149.8"/>
<text text-anchor="middle" x="93" y="-127.6" font-family="Times,serif" font-size="14.00">FormatTimePipeModule</text>
</g>
<!-- FormatTimePipe&#45;&gt;FormatTimePipeModule -->
<g id="edge1" class="edge">
<title>FormatTimePipe&#45;&gt;FormatTimePipeModule</title>
<path fill="none" stroke="black" d="M93,-84.91C93,-84.91 93,-103.79 93,-103.79"/>
<polygon fill="black" stroke="black" points="89.5,-103.79 93,-113.79 96.5,-103.79 89.5,-103.79"/>
</g>
<!-- FormatTimePipe  -->
<g id="node3" class="node">
<title>FormatTimePipe </title>
<polygon fill="#fb8072" stroke="black" points="150.38,-214.8 35.62,-214.8 35.62,-178.8 150.38,-178.8 150.38,-214.8"/>
<text text-anchor="middle" x="93" y="-192.6" font-family="Times,serif" font-size="14.00">FormatTimePipe </text>
</g>
<!-- FormatTimePipeModule&#45;&gt;FormatTimePipe  -->
<g id="edge2" class="edge">
<title>FormatTimePipeModule&#45;&gt;FormatTimePipe </title>
<path fill="none" stroke="black" stroke-dasharray="5,2" d="M93,-149.91C93,-149.91 93,-168.79 93,-168.79"/>
<polygon fill="black" stroke="black" points="89.5,-168.79 93,-178.79 96.5,-168.79 89.5,-168.79"/>
</g>
</g>
</svg>
