<?xml version="1.0" encoding="UTF-8" standalone="no"?>
<!DOCTYPE svg PUBLIC "-//W3C//DTD SVG 1.1//EN"
 "http://www.w3.org/Graphics/SVG/1.1/DTD/svg11.dtd">
<!-- Generated by graphviz version 2.47.3 (20210619.1520)
 -->
<!-- Title: dependencies Pages: 1 -->
<svg width="662pt" height="174pt"
 viewBox="0.00 0.00 662.00 173.80" xmlns="http://www.w3.org/2000/svg" xmlns:xlink="http://www.w3.org/1999/xlink">
<g id="graph0" class="graph" transform="scale(1 1) rotate(0) translate(4 169.8)">
<title>dependencies</title>
<polygon fill="white" stroke="transparent" points="-4,4 -4,-169.8 658,-169.8 658,4 -4,4"/>
<text text-anchor="middle" x="327" y="-8.2" font-family="sans-serif" font-size="14.00">dependencies</text>
<g id="clust1" class="cluster">
<title>cluster_OddOneOutModule</title>
<polygon fill="none" stroke="black" stroke-dasharray="1,5" points="8,-32.8 8,-157.8 646,-157.8 646,-32.8 8,-32.8"/>
</g>
<g id="clust2" class="cluster">
<title>cluster_OddOneOutModule_declarations</title>
<polygon fill="none" stroke="black" points="338,-40.8 338,-92.8 638,-92.8 638,-40.8 338,-40.8"/>
</g>
<g id="clust5" class="cluster">
<title>cluster_OddOneOutModule_imports</title>
<polygon fill="none" stroke="black" points="16,-40.8 16,-92.8 330,-92.8 330,-40.8 16,-40.8"/>
</g>
<!-- OddOneOutComponent -->
<g id="node1" class="node">
<title>OddOneOutComponent</title>
<polygon fill="#ffffb3" stroke="black" points="629.76,-84.8 480.24,-84.8 480.24,-48.8 629.76,-48.8 629.76,-84.8"/>
<text text-anchor="middle" x="555" y="-62.6" font-family="Times,serif" font-size="14.00">OddOneOutComponent</text>
</g>
<!-- OddOneOutModule -->
<g id="node3" class="node">
<title>OddOneOutModule</title>
<polygon fill="#8dd3c7" stroke="black" points="399.97,-149.8 396.97,-153.8 375.97,-153.8 372.97,-149.8 272.03,-149.8 272.03,-113.8 399.97,-113.8 399.97,-149.8"/>
<text text-anchor="middle" x="336" y="-127.6" font-family="Times,serif" font-size="14.00">OddOneOutModule</text>
</g>
<!-- OddOneOutComponent&#45;&gt;OddOneOutModule -->
<g id="edge1" class="edge">
<title>OddOneOutComponent&#45;&gt;OddOneOutModule</title>
<path fill="none" stroke="black" d="M555,-84.91C555,-104.14 555,-131.8 555,-131.8 555,-131.8 410.23,-131.8 410.23,-131.8"/>
<polygon fill="black" stroke="black" points="410.23,-128.3 400.23,-131.8 410.23,-135.3 410.23,-128.3"/>
</g>
<!-- ShapeComponent -->
<g id="node2" class="node">
<title>ShapeComponent</title>
<polygon fill="#ffffb3" stroke="black" points="461.55,-84.8 346.45,-84.8 346.45,-48.8 461.55,-48.8 461.55,-84.8"/>
<text text-anchor="middle" x="404" y="-62.6" font-family="Times,serif" font-size="14.00">ShapeComponent</text>
</g>
<!-- ShapeComponent&#45;&gt;OddOneOutModule -->
<g id="edge2" class="edge">
<title>ShapeComponent&#45;&gt;OddOneOutModule</title>
<path fill="none" stroke="black" d="M373.11,-84.91C373.11,-84.91 373.11,-103.79 373.11,-103.79"/>
<polygon fill="black" stroke="black" points="369.61,-103.79 373.11,-113.79 376.61,-103.79 369.61,-103.79"/>
</g>
<!-- MaterialModule -->
<g id="node4" class="node">
<title>MaterialModule</title>
<polygon fill="#8dd3c7" stroke="black" points="322.47,-84.8 319.47,-88.8 298.47,-88.8 295.47,-84.8 215.53,-84.8 215.53,-48.8 322.47,-48.8 322.47,-84.8"/>
<text text-anchor="middle" x="269" y="-62.6" font-family="Times,serif" font-size="14.00">MaterialModule</text>
</g>
<!-- MaterialModule&#45;&gt;OddOneOutModule -->
<g id="edge3" class="edge">
<title>MaterialModule&#45;&gt;OddOneOutModule</title>
<path fill="none" stroke="black" d="M297.25,-84.91C297.25,-84.91 297.25,-103.79 297.25,-103.79"/>
<polygon fill="black" stroke="black" points="293.75,-103.79 297.25,-113.79 300.75,-103.79 293.75,-103.79"/>
</g>
<!-- OddOneOutRoutingModule -->
<g id="node5" class="node">
<title>OddOneOutRoutingModule</title>
<polygon fill="#8dd3c7" stroke="black" points="197.59,-84.8 194.59,-88.8 173.59,-88.8 170.59,-84.8 24.41,-84.8 24.41,-48.8 197.59,-48.8 197.59,-84.8"/>
<text text-anchor="middle" x="111" y="-62.6" font-family="Times,serif" font-size="14.00">OddOneOutRoutingModule</text>
</g>
<!-- OddOneOutRoutingModule&#45;&gt;OddOneOutModule -->
<g id="edge4" class="edge">
<title>OddOneOutRoutingModule&#45;&gt;OddOneOutModule</title>
<path fill="none" stroke="black" d="M111,-84.91C111,-104.14 111,-131.8 111,-131.8 111,-131.8 261.83,-131.8 261.83,-131.8"/>
<polygon fill="black" stroke="black" points="261.83,-135.3 271.83,-131.8 261.83,-128.3 261.83,-135.3"/>
</g>
</g>
</svg>
