<?xml version="1.0" encoding="UTF-8" standalone="no"?>
<!DOCTYPE svg PUBLIC "-//W3C//DTD SVG 1.1//EN"
 "http://www.w3.org/Graphics/SVG/1.1/DTD/svg11.dtd">
<!-- Generated by graphviz version 2.47.3 (20210619.1520)
 -->
<!-- Title: dependencies Pages: 1 -->
<svg width="444pt" height="174pt"
 viewBox="0.00 0.00 444.00 173.80" xmlns="http://www.w3.org/2000/svg" xmlns:xlink="http://www.w3.org/1999/xlink">
<g id="graph0" class="graph" transform="scale(1 1) rotate(0) translate(4 169.8)">
<title>dependencies</title>
<polygon fill="white" stroke="transparent" points="-4,4 -4,-169.8 440,-169.8 440,4 -4,4"/>
<text text-anchor="middle" x="218" y="-8.2" font-family="sans-serif" font-size="14.00">dependencies</text>
<g id="clust1" class="cluster">
<title>cluster_StatsModule</title>
<polygon fill="none" stroke="black" stroke-dasharray="1,5" points="8,-32.8 8,-157.8 428,-157.8 428,-32.8 8,-32.8"/>
</g>
<g id="clust2" class="cluster">
<title>cluster_StatsModule_declarations</title>
<polygon fill="none" stroke="black" points="296,-40.8 296,-92.8 420,-92.8 420,-40.8 296,-40.8"/>
</g>
<g id="clust4" class="cluster">
<title>cluster_StatsModule_imports</title>
<polygon fill="none" stroke="black" points="16,-40.8 16,-92.8 288,-92.8 288,-40.8 16,-40.8"/>
</g>
<!-- StatsComponent -->
<g id="node1" class="node">
<title>StatsComponent</title>
<polygon fill="#ffffb3" stroke="black" points="412.06,-84.8 303.94,-84.8 303.94,-48.8 412.06,-48.8 412.06,-84.8"/>
<text text-anchor="middle" x="358" y="-62.6" font-family="Times,serif" font-size="14.00">StatsComponent</text>
</g>
<!-- StatsModule -->
<g id="node2" class="node">
<title>StatsModule</title>
<polygon fill="#8dd3c7" stroke="black" points="270.27,-149.8 267.27,-153.8 246.27,-153.8 243.27,-149.8 183.73,-149.8 183.73,-113.8 270.27,-113.8 270.27,-149.8"/>
<text text-anchor="middle" x="227" y="-127.6" font-family="Times,serif" font-size="14.00">StatsModule</text>
</g>
<!-- StatsComponent&#45;&gt;StatsModule -->
<g id="edge1" class="edge">
<title>StatsComponent&#45;&gt;StatsModule</title>
<path fill="none" stroke="black" d="M358,-84.91C358,-104.14 358,-131.8 358,-131.8 358,-131.8 280.62,-131.8 280.62,-131.8"/>
<polygon fill="black" stroke="black" points="280.62,-128.3 270.62,-131.8 280.62,-135.3 280.62,-128.3"/>
</g>
<!-- MaterialModule -->
<g id="node3" class="node">
<title>MaterialModule</title>
<polygon fill="#8dd3c7" stroke="black" points="280.47,-84.8 277.47,-88.8 256.47,-88.8 253.47,-84.8 173.53,-84.8 173.53,-48.8 280.47,-48.8 280.47,-84.8"/>
<text text-anchor="middle" x="227" y="-62.6" font-family="Times,serif" font-size="14.00">MaterialModule</text>
</g>
<!-- MaterialModule&#45;&gt;StatsModule -->
<g id="edge2" class="edge">
<title>MaterialModule&#45;&gt;StatsModule</title>
<path fill="none" stroke="black" d="M227,-84.91C227,-84.91 227,-103.79 227,-103.79"/>
<polygon fill="black" stroke="black" points="223.5,-103.79 227,-113.79 230.5,-103.79 223.5,-103.79"/>
</g>
<!-- StatsRoutingModule -->
<g id="node4" class="node">
<title>StatsRoutingModule</title>
<polygon fill="#8dd3c7" stroke="black" points="155.89,-84.8 152.89,-88.8 131.89,-88.8 128.89,-84.8 24.11,-84.8 24.11,-48.8 155.89,-48.8 155.89,-84.8"/>
<text text-anchor="middle" x="90" y="-62.6" font-family="Times,serif" font-size="14.00">StatsRoutingModule</text>
</g>
<!-- StatsRoutingModule&#45;&gt;StatsModule -->
<g id="edge3" class="edge">
<title>StatsRoutingModule&#45;&gt;StatsModule</title>
<path fill="none" stroke="black" d="M90,-84.91C90,-104.14 90,-131.8 90,-131.8 90,-131.8 173.65,-131.8 173.65,-131.8"/>
<polygon fill="black" stroke="black" points="173.65,-135.3 183.65,-131.8 173.65,-128.3 173.65,-135.3"/>
</g>
</g>
</svg>
