<?xml version="1.0" encoding="UTF-8" standalone="no"?>
<!DOCTYPE svg PUBLIC "-//W3C//DTD SVG 1.1//EN"
 "http://www.w3.org/Graphics/SVG/1.1/DTD/svg11.dtd">
<!-- Generated by graphviz version 2.47.3 (20210619.1520)
 -->
<!-- Title: dependencies Pages: 1 -->
<svg width="531pt" height="174pt"
 viewBox="0.00 0.00 531.00 173.80" xmlns="http://www.w3.org/2000/svg" xmlns:xlink="http://www.w3.org/1999/xlink">
<g id="graph0" class="graph" transform="scale(1 1) rotate(0) translate(4 169.8)">
<title>dependencies</title>
<polygon fill="white" stroke="transparent" points="-4,4 -4,-169.8 527,-169.8 527,4 -4,4"/>
<text text-anchor="middle" x="261.5" y="-8.2" font-family="sans-serif" font-size="14.00">dependencies</text>
<g id="clust1" class="cluster">
<title>cluster_SpeedMatchModule</title>
<polygon fill="none" stroke="black" stroke-dasharray="1,5" points="8,-32.8 8,-157.8 515,-157.8 515,-32.8 8,-32.8"/>
</g>
<g id="clust2" class="cluster">
<title>cluster_SpeedMatchModule_declarations</title>
<polygon fill="none" stroke="black" points="339,-40.8 339,-92.8 507,-92.8 507,-40.8 339,-40.8"/>
</g>
<g id="clust4" class="cluster">
<title>cluster_SpeedMatchModule_imports</title>
<polygon fill="none" stroke="black" points="16,-40.8 16,-92.8 331,-92.8 331,-40.8 16,-40.8"/>
</g>
<!-- SpeedMatchComponent -->
<g id="node1" class="node">
<title>SpeedMatchComponent</title>
<polygon fill="#ffffb3" stroke="black" points="498.81,-84.8 347.19,-84.8 347.19,-48.8 498.81,-48.8 498.81,-84.8"/>
<text text-anchor="middle" x="423" y="-62.6" font-family="Times,serif" font-size="14.00">SpeedMatchComponent</text>
</g>
<!-- SpeedMatchModule -->
<g id="node2" class="node">
<title>SpeedMatchModule</title>
<polygon fill="#8dd3c7" stroke="black" points="334.53,-149.8 331.53,-153.8 310.53,-153.8 307.53,-149.8 205.47,-149.8 205.47,-113.8 334.53,-113.8 334.53,-149.8"/>
<text text-anchor="middle" x="270" y="-127.6" font-family="Times,serif" font-size="14.00">SpeedMatchModule</text>
</g>
<!-- SpeedMatchComponent&#45;&gt;SpeedMatchModule -->
<g id="edge1" class="edge">
<title>SpeedMatchComponent&#45;&gt;SpeedMatchModule</title>
<path fill="none" stroke="black" d="M347.22,-66.8C336.55,-66.8 329.12,-66.8 329.12,-66.8 329.12,-66.8 329.12,-103.69 329.12,-103.69"/>
<polygon fill="black" stroke="black" points="325.62,-103.69 329.12,-113.69 332.62,-103.69 325.62,-103.69"/>
</g>
<!-- MaterialModule -->
<g id="node3" class="node">
<title>MaterialModule</title>
<polygon fill="#8dd3c7" stroke="black" points="323.47,-84.8 320.47,-88.8 299.47,-88.8 296.47,-84.8 216.53,-84.8 216.53,-48.8 323.47,-48.8 323.47,-84.8"/>
<text text-anchor="middle" x="270" y="-62.6" font-family="Times,serif" font-size="14.00">MaterialModule</text>
</g>
<!-- MaterialModule&#45;&gt;SpeedMatchModule -->
<g id="edge2" class="edge">
<title>MaterialModule&#45;&gt;SpeedMatchModule</title>
<path fill="none" stroke="black" d="M270,-84.91C270,-84.91 270,-103.79 270,-103.79"/>
<polygon fill="black" stroke="black" points="266.5,-103.79 270,-113.79 273.5,-103.79 266.5,-103.79"/>
</g>
<!-- SpeedMatchRoutingModule -->
<g id="node4" class="node">
<title>SpeedMatchRoutingModule</title>
<polygon fill="#8dd3c7" stroke="black" points="198.14,-84.8 195.14,-88.8 174.14,-88.8 171.14,-84.8 23.86,-84.8 23.86,-48.8 198.14,-48.8 198.14,-84.8"/>
<text text-anchor="middle" x="111" y="-62.6" font-family="Times,serif" font-size="14.00">SpeedMatchRoutingModule</text>
</g>
<!-- SpeedMatchRoutingModule&#45;&gt;SpeedMatchModule -->
<g id="edge3" class="edge">
<title>SpeedMatchRoutingModule&#45;&gt;SpeedMatchModule</title>
<path fill="none" stroke="black" d="M198.23,-66.8C205.92,-66.8 210.88,-66.8 210.88,-66.8 210.88,-66.8 210.88,-103.69 210.88,-103.69"/>
<polygon fill="black" stroke="black" points="207.38,-103.69 210.88,-113.69 214.38,-103.69 207.38,-103.69"/>
</g>
</g>
</svg>
