<?xml version="1.0" encoding="UTF-8" standalone="no"?>
<!DOCTYPE svg PUBLIC "-//W3C//DTD SVG 1.1//EN"
 "http://www.w3.org/Graphics/SVG/1.1/DTD/svg11.dtd">
<!-- Generated by graphviz version 2.47.3 (20210619.1520)
 -->
<!-- Title: dependencies Pages: 1 -->
<svg width="497pt" height="174pt"
 viewBox="0.00 0.00 497.00 173.80" xmlns="http://www.w3.org/2000/svg" xmlns:xlink="http://www.w3.org/1999/xlink">
<g id="graph0" class="graph" transform="scale(1 1) rotate(0) translate(4 169.8)">
<title>dependencies</title>
<polygon fill="white" stroke="transparent" points="-4,4 -4,-169.8 493,-169.8 493,4 -4,4"/>
<text text-anchor="middle" x="244.5" y="-8.2" font-family="sans-serif" font-size="14.00">dependencies</text>
<g id="clust1" class="cluster">
<title>cluster_SequenceModule</title>
<polygon fill="none" stroke="black" stroke-dasharray="1,5" points="8,-32.8 8,-157.8 481,-157.8 481,-32.8 8,-32.8"/>
</g>
<g id="clust4" class="cluster">
<title>cluster_SequenceModule_imports</title>
<polygon fill="none" stroke="black" points="174,-40.8 174,-92.8 473,-92.8 473,-40.8 174,-40.8"/>
</g>
<g id="clust2" class="cluster">
<title>cluster_SequenceModule_declarations</title>
<polygon fill="none" stroke="black" points="16,-40.8 16,-92.8 166,-92.8 166,-40.8 16,-40.8"/>
</g>
<!-- SequenceComponent -->
<g id="node1" class="node">
<title>SequenceComponent</title>
<polygon fill="#ffffb3" stroke="black" points="158.47,-84.8 23.53,-84.8 23.53,-48.8 158.47,-48.8 158.47,-84.8"/>
<text text-anchor="middle" x="91" y="-62.6" font-family="Times,serif" font-size="14.00">SequenceComponent</text>
</g>
<!-- SequenceModule -->
<g id="node2" class="node">
<title>SequenceModule</title>
<polygon fill="#8dd3c7" stroke="black" points="317.69,-149.8 314.69,-153.8 293.69,-153.8 290.69,-149.8 204.31,-149.8 204.31,-113.8 317.69,-113.8 317.69,-149.8"/>
<text text-anchor="middle" x="261" y="-127.6" font-family="Times,serif" font-size="14.00">SequenceModule</text>
</g>
<!-- SequenceComponent&#45;&gt;SequenceModule -->
<g id="edge1" class="edge">
<title>SequenceComponent&#45;&gt;SequenceModule</title>
<path fill="none" stroke="black" d="M91,-84.91C91,-104.14 91,-131.8 91,-131.8 91,-131.8 194.39,-131.8 194.39,-131.8"/>
<polygon fill="black" stroke="black" points="194.39,-135.3 204.39,-131.8 194.39,-128.3 194.39,-135.3"/>
</g>
<!-- MaterialModule -->
<g id="node3" class="node">
<title>MaterialModule</title>
<polygon fill="#8dd3c7" stroke="black" points="465.47,-84.8 462.47,-88.8 441.47,-88.8 438.47,-84.8 358.53,-84.8 358.53,-48.8 465.47,-48.8 465.47,-84.8"/>
<text text-anchor="middle" x="412" y="-62.6" font-family="Times,serif" font-size="14.00">MaterialModule</text>
</g>
<!-- MaterialModule&#45;&gt;SequenceModule -->
<g id="edge2" class="edge">
<title>MaterialModule&#45;&gt;SequenceModule</title>
<path fill="none" stroke="black" d="M412,-84.91C412,-104.14 412,-131.8 412,-131.8 412,-131.8 327.66,-131.8 327.66,-131.8"/>
<polygon fill="black" stroke="black" points="327.66,-128.3 317.66,-131.8 327.66,-135.3 327.66,-128.3"/>
</g>
<!-- SequenceRoutingModule -->
<g id="node4" class="node">
<title>SequenceRoutingModule</title>
<polygon fill="#8dd3c7" stroke="black" points="340.31,-84.8 337.31,-88.8 316.31,-88.8 313.31,-84.8 181.69,-84.8 181.69,-48.8 340.31,-48.8 340.31,-84.8"/>
<text text-anchor="middle" x="261" y="-62.6" font-family="Times,serif" font-size="14.00">SequenceRoutingModule</text>
</g>
<!-- SequenceRoutingModule&#45;&gt;SequenceModule -->
<g id="edge3" class="edge">
<title>SequenceRoutingModule&#45;&gt;SequenceModule</title>
<path fill="none" stroke="black" d="M261,-84.91C261,-84.91 261,-103.79 261,-103.79"/>
<polygon fill="black" stroke="black" points="257.5,-103.79 261,-113.79 264.5,-103.79 257.5,-103.79"/>
</g>
</g>
</svg>
