<?xml version="1.0" encoding="UTF-8" standalone="no"?>
<!DOCTYPE svg PUBLIC "-//W3C//DTD SVG 1.1//EN"
 "http://www.w3.org/Graphics/SVG/1.1/DTD/svg11.dtd">
<!-- Generated by graphviz version 2.47.3 (20210619.1520)
 -->
<!-- Title: dependencies Pages: 1 -->
<svg width="520pt" height="174pt"
 viewBox="0.00 0.00 520.00 173.80" xmlns="http://www.w3.org/2000/svg" xmlns:xlink="http://www.w3.org/1999/xlink">
<g id="graph0" class="graph" transform="scale(1 1) rotate(0) translate(4 169.8)">
<title>dependencies</title>
<polygon fill="white" stroke="transparent" points="-4,4 -4,-169.8 516,-169.8 516,4 -4,4"/>
<text text-anchor="middle" x="256" y="-8.2" font-family="sans-serif" font-size="14.00">dependencies</text>
<g id="clust1" class="cluster">
<title>cluster_ModifydataModule</title>
<polygon fill="none" stroke="black" stroke-dasharray="1,5" points="8,-32.8 8,-157.8 504,-157.8 504,-32.8 8,-32.8"/>
</g>
<g id="clust4" class="cluster">
<title>cluster_ModifydataModule_imports</title>
<polygon fill="none" stroke="black" points="186,-40.8 186,-92.8 496,-92.8 496,-40.8 186,-40.8"/>
</g>
<g id="clust2" class="cluster">
<title>cluster_ModifydataModule_declarations</title>
<polygon fill="none" stroke="black" points="16,-40.8 16,-92.8 178,-92.8 178,-40.8 16,-40.8"/>
</g>
<!-- ModifydataComponent -->
<g id="node1" class="node">
<title>ModifydataComponent</title>
<polygon fill="#ffffb3" stroke="black" points="170.15,-84.8 23.85,-84.8 23.85,-48.8 170.15,-48.8 170.15,-84.8"/>
<text text-anchor="middle" x="97" y="-62.6" font-family="Times,serif" font-size="14.00">ModifydataComponent</text>
</g>
<!-- ModifydataModule -->
<g id="node2" class="node">
<title>ModifydataModule</title>
<polygon fill="#8dd3c7" stroke="black" points="341.37,-149.8 338.37,-153.8 317.37,-153.8 314.37,-149.8 216.63,-149.8 216.63,-113.8 341.37,-113.8 341.37,-149.8"/>
<text text-anchor="middle" x="279" y="-127.6" font-family="Times,serif" font-size="14.00">ModifydataModule</text>
</g>
<!-- ModifydataComponent&#45;&gt;ModifydataModule -->
<g id="edge1" class="edge">
<title>ModifydataComponent&#45;&gt;ModifydataModule</title>
<path fill="none" stroke="black" d="M97,-84.91C97,-104.14 97,-131.8 97,-131.8 97,-131.8 206.62,-131.8 206.62,-131.8"/>
<polygon fill="black" stroke="black" points="206.62,-135.3 216.62,-131.8 206.62,-128.3 206.62,-135.3"/>
</g>
<!-- MaterialModule -->
<g id="node3" class="node">
<title>MaterialModule</title>
<polygon fill="#8dd3c7" stroke="black" points="488.47,-84.8 485.47,-88.8 464.47,-88.8 461.47,-84.8 381.53,-84.8 381.53,-48.8 488.47,-48.8 488.47,-84.8"/>
<text text-anchor="middle" x="435" y="-62.6" font-family="Times,serif" font-size="14.00">MaterialModule</text>
</g>
<!-- MaterialModule&#45;&gt;ModifydataModule -->
<g id="edge2" class="edge">
<title>MaterialModule&#45;&gt;ModifydataModule</title>
<path fill="none" stroke="black" d="M435,-84.91C435,-104.14 435,-131.8 435,-131.8 435,-131.8 351.55,-131.8 351.55,-131.8"/>
<polygon fill="black" stroke="black" points="351.55,-128.3 341.55,-131.8 351.55,-135.3 351.55,-128.3"/>
</g>
<!-- ModifydataRoutingModule -->
<g id="node4" class="node">
<title>ModifydataRoutingModule</title>
<polygon fill="#8dd3c7" stroke="black" points="363.98,-84.8 360.98,-88.8 339.98,-88.8 336.98,-84.8 194.02,-84.8 194.02,-48.8 363.98,-48.8 363.98,-84.8"/>
<text text-anchor="middle" x="279" y="-62.6" font-family="Times,serif" font-size="14.00">ModifydataRoutingModule</text>
</g>
<!-- ModifydataRoutingModule&#45;&gt;ModifydataModule -->
<g id="edge3" class="edge">
<title>ModifydataRoutingModule&#45;&gt;ModifydataModule</title>
<path fill="none" stroke="black" d="M279,-84.91C279,-84.91 279,-103.79 279,-103.79"/>
<polygon fill="black" stroke="black" points="275.5,-103.79 279,-113.79 282.5,-103.79 275.5,-103.79"/>
</g>
</g>
</svg>
