<?xml version="1.0" encoding="UTF-8" standalone="no"?>
<!DOCTYPE svg PUBLIC "-//W3C//DTD SVG 1.1//EN"
 "http://www.w3.org/Graphics/SVG/1.1/DTD/svg11.dtd">
<!-- Generated by graphviz version 2.47.3 (20210619.1520)
 -->
<!-- Title: dependencies Pages: 1 -->
<svg width="685pt" height="174pt"
 viewBox="0.00 0.00 685.00 173.80" xmlns="http://www.w3.org/2000/svg" xmlns:xlink="http://www.w3.org/1999/xlink">
<g id="graph0" class="graph" transform="scale(1 1) rotate(0) translate(4 169.8)">
<title>dependencies</title>
<polygon fill="white" stroke="transparent" points="-4,4 -4,-169.8 681,-169.8 681,4 -4,4"/>
<text text-anchor="middle" x="338.5" y="-8.2" font-family="sans-serif" font-size="14.00">dependencies</text>
<g id="clust1" class="cluster">
<title>cluster_MemoryMatrixModule</title>
<polygon fill="none" stroke="black" stroke-dasharray="1,5" points="8,-32.8 8,-157.8 669,-157.8 669,-32.8 8,-32.8"/>
</g>
<g id="clust5" class="cluster">
<title>cluster_MemoryMatrixModule_imports</title>
<polygon fill="none" stroke="black" points="330,-40.8 330,-92.8 661,-92.8 661,-40.8 330,-40.8"/>
</g>
<g id="clust2" class="cluster">
<title>cluster_MemoryMatrixModule_declarations</title>
<polygon fill="none" stroke="black" points="16,-40.8 16,-92.8 322,-92.8 322,-40.8 16,-40.8"/>
</g>
<!-- MemoryMatrixComponent -->
<g id="node1" class="node">
<title>MemoryMatrixComponent</title>
<polygon fill="#ffffb3" stroke="black" points="313.64,-84.8 146.36,-84.8 146.36,-48.8 313.64,-48.8 313.64,-84.8"/>
<text text-anchor="middle" x="230" y="-62.6" font-family="Times,serif" font-size="14.00">MemoryMatrixComponent</text>
</g>
<!-- MemoryMatrixModule -->
<g id="node3" class="node">
<title>MemoryMatrixModule</title>
<polygon fill="#8dd3c7" stroke="black" points="403.86,-149.8 400.86,-153.8 379.86,-153.8 376.86,-149.8 258.14,-149.8 258.14,-113.8 403.86,-113.8 403.86,-149.8"/>
<text text-anchor="middle" x="331" y="-127.6" font-family="Times,serif" font-size="14.00">MemoryMatrixModule</text>
</g>
<!-- MemoryMatrixComponent&#45;&gt;MemoryMatrixModule -->
<g id="edge1" class="edge">
<title>MemoryMatrixComponent&#45;&gt;MemoryMatrixModule</title>
<path fill="none" stroke="black" d="M285.95,-84.91C285.95,-84.91 285.95,-103.79 285.95,-103.79"/>
<polygon fill="black" stroke="black" points="282.45,-103.79 285.95,-113.79 289.45,-103.79 282.45,-103.79"/>
</g>
<!-- TileComponent -->
<g id="node2" class="node">
<title>TileComponent</title>
<polygon fill="#ffffb3" stroke="black" points="127.88,-84.8 24.12,-84.8 24.12,-48.8 127.88,-48.8 127.88,-84.8"/>
<text text-anchor="middle" x="76" y="-62.6" font-family="Times,serif" font-size="14.00">TileComponent</text>
</g>
<!-- TileComponent&#45;&gt;MemoryMatrixModule -->
<g id="edge2" class="edge">
<title>TileComponent&#45;&gt;MemoryMatrixModule</title>
<path fill="none" stroke="black" d="M76,-84.91C76,-104.14 76,-131.8 76,-131.8 76,-131.8 247.93,-131.8 247.93,-131.8"/>
<polygon fill="black" stroke="black" points="247.93,-135.3 257.93,-131.8 247.93,-128.3 247.93,-135.3"/>
</g>
<!-- MaterialModule -->
<g id="node4" class="node">
<title>MaterialModule</title>
<polygon fill="#8dd3c7" stroke="black" points="653.47,-84.8 650.47,-88.8 629.47,-88.8 626.47,-84.8 546.53,-84.8 546.53,-48.8 653.47,-48.8 653.47,-84.8"/>
<text text-anchor="middle" x="600" y="-62.6" font-family="Times,serif" font-size="14.00">MaterialModule</text>
</g>
<!-- MaterialModule&#45;&gt;MemoryMatrixModule -->
<g id="edge3" class="edge">
<title>MaterialModule&#45;&gt;MemoryMatrixModule</title>
<path fill="none" stroke="black" d="M600,-84.91C600,-104.14 600,-131.8 600,-131.8 600,-131.8 414.15,-131.8 414.15,-131.8"/>
<polygon fill="black" stroke="black" points="414.15,-128.3 404.15,-131.8 414.15,-135.3 414.15,-128.3"/>
</g>
<!-- MemoryMatrixRoutingModule -->
<g id="node5" class="node">
<title>MemoryMatrixRoutingModule</title>
<polygon fill="#8dd3c7" stroke="black" points="528.48,-84.8 525.48,-88.8 504.48,-88.8 501.48,-84.8 337.52,-84.8 337.52,-48.8 528.48,-48.8 528.48,-84.8"/>
<text text-anchor="middle" x="433" y="-62.6" font-family="Times,serif" font-size="14.00">MemoryMatrixRoutingModule</text>
</g>
<!-- MemoryMatrixRoutingModule&#45;&gt;MemoryMatrixModule -->
<g id="edge4" class="edge">
<title>MemoryMatrixRoutingModule&#45;&gt;MemoryMatrixModule</title>
<path fill="none" stroke="black" d="M370.72,-84.91C370.72,-84.91 370.72,-103.79 370.72,-103.79"/>
<polygon fill="black" stroke="black" points="367.22,-103.79 370.72,-113.79 374.22,-103.79 367.22,-103.79"/>
</g>
</g>
</svg>
