<?xml version="1.0" encoding="UTF-8" standalone="no"?>
<!DOCTYPE svg PUBLIC "-//W3C//DTD SVG 1.1//EN"
 "http://www.w3.org/Graphics/SVG/1.1/DTD/svg11.dtd">
<!-- Generated by graphviz version 2.47.3 (20210619.1520)
 -->
<!-- Title: dependencies Pages: 1 -->
<svg width="471pt" height="174pt"
 viewBox="0.00 0.00 471.00 173.80" xmlns="http://www.w3.org/2000/svg" xmlns:xlink="http://www.w3.org/1999/xlink">
<g id="graph0" class="graph" transform="scale(1 1) rotate(0) translate(4 169.8)">
<title>dependencies</title>
<polygon fill="white" stroke="transparent" points="-4,4 -4,-169.8 467,-169.8 467,4 -4,4"/>
<text text-anchor="middle" x="231.5" y="-8.2" font-family="sans-serif" font-size="14.00">dependencies</text>
<g id="clust1" class="cluster">
<title>cluster_SignupModule</title>
<polygon fill="none" stroke="black" stroke-dasharray="1,5" points="8,-32.8 8,-157.8 455,-157.8 455,-32.8 8,-32.8"/>
</g>
<g id="clust4" class="cluster">
<title>cluster_SignupModule_imports</title>
<polygon fill="none" stroke="black" points="162,-40.8 162,-92.8 447,-92.8 447,-40.8 162,-40.8"/>
</g>
<g id="clust2" class="cluster">
<title>cluster_SignupModule_declarations</title>
<polygon fill="none" stroke="black" points="16,-40.8 16,-92.8 154,-92.8 154,-40.8 16,-40.8"/>
</g>
<!-- SignupComponent -->
<g id="node1" class="node">
<title>SignupComponent</title>
<polygon fill="#ffffb3" stroke="black" points="145.51,-84.8 24.49,-84.8 24.49,-48.8 145.51,-48.8 145.51,-84.8"/>
<text text-anchor="middle" x="85" y="-62.6" font-family="Times,serif" font-size="14.00">SignupComponent</text>
</g>
<!-- SignupModule -->
<g id="node2" class="node">
<title>SignupModule</title>
<polygon fill="#8dd3c7" stroke="black" points="291.72,-149.8 288.72,-153.8 267.72,-153.8 264.72,-149.8 192.28,-149.8 192.28,-113.8 291.72,-113.8 291.72,-149.8"/>
<text text-anchor="middle" x="242" y="-127.6" font-family="Times,serif" font-size="14.00">SignupModule</text>
</g>
<!-- SignupComponent&#45;&gt;SignupModule -->
<g id="edge1" class="edge">
<title>SignupComponent&#45;&gt;SignupModule</title>
<path fill="none" stroke="black" d="M85,-84.91C85,-104.14 85,-131.8 85,-131.8 85,-131.8 182.32,-131.8 182.32,-131.8"/>
<polygon fill="black" stroke="black" points="182.32,-135.3 192.32,-131.8 182.32,-128.3 182.32,-135.3"/>
</g>
<!-- MaterialModule -->
<g id="node3" class="node">
<title>MaterialModule</title>
<polygon fill="#8dd3c7" stroke="black" points="439.47,-84.8 436.47,-88.8 415.47,-88.8 412.47,-84.8 332.53,-84.8 332.53,-48.8 439.47,-48.8 439.47,-84.8"/>
<text text-anchor="middle" x="386" y="-62.6" font-family="Times,serif" font-size="14.00">MaterialModule</text>
</g>
<!-- MaterialModule&#45;&gt;SignupModule -->
<g id="edge2" class="edge">
<title>MaterialModule&#45;&gt;SignupModule</title>
<path fill="none" stroke="black" d="M386,-84.91C386,-104.14 386,-131.8 386,-131.8 386,-131.8 301.96,-131.8 301.96,-131.8"/>
<polygon fill="black" stroke="black" points="301.96,-128.3 291.96,-131.8 301.96,-135.3 301.96,-128.3"/>
</g>
<!-- SignupRoutingModule -->
<g id="node4" class="node">
<title>SignupRoutingModule</title>
<polygon fill="#8dd3c7" stroke="black" points="314.34,-84.8 311.34,-88.8 290.34,-88.8 287.34,-84.8 169.66,-84.8 169.66,-48.8 314.34,-48.8 314.34,-84.8"/>
<text text-anchor="middle" x="242" y="-62.6" font-family="Times,serif" font-size="14.00">SignupRoutingModule</text>
</g>
<!-- SignupRoutingModule&#45;&gt;SignupModule -->
<g id="edge3" class="edge">
<title>SignupRoutingModule&#45;&gt;SignupModule</title>
<path fill="none" stroke="black" d="M242,-84.91C242,-84.91 242,-103.79 242,-103.79"/>
<polygon fill="black" stroke="black" points="238.5,-103.79 242,-113.79 245.5,-103.79 238.5,-103.79"/>
</g>
</g>
</svg>
