<?xml version="1.0" encoding="UTF-8" standalone="no"?>
<!DOCTYPE svg PUBLIC "-//W3C//DTD SVG 1.1//EN"
 "http://www.w3.org/Graphics/SVG/1.1/DTD/svg11.dtd">
<!-- Generated by graphviz version 2.47.3 (20210619.1520)
 -->
<!-- Title: dependencies Pages: 1 -->
<svg width="520pt" height="174pt"
 viewBox="0.00 0.00 520.00 173.80" xmlns="http://www.w3.org/2000/svg" xmlns:xlink="http://www.w3.org/1999/xlink">
<g id="graph0" class="graph" transform="scale(1 1) rotate(0) translate(4 169.8)">
<title>dependencies</title>
<polygon fill="white" stroke="transparent" points="-4,4 -4,-169.8 516,-169.8 516,4 -4,4"/>
<text text-anchor="middle" x="256" y="-8.2" font-family="sans-serif" font-size="14.00">dependencies</text>
<g id="clust1" class="cluster">
<title>cluster_ChalkboardModule</title>
<polygon fill="none" stroke="black" stroke-dasharray="1,5" points="8,-32.8 8,-157.8 504,-157.8 504,-32.8 8,-32.8"/>
</g>
<g id="clust2" class="cluster">
<title>cluster_ChalkboardModule_declarations</title>
<polygon fill="none" stroke="black" points="334,-40.8 334,-92.8 496,-92.8 496,-40.8 334,-40.8"/>
</g>
<g id="clust4" class="cluster">
<title>cluster_ChalkboardModule_imports</title>
<polygon fill="none" stroke="black" points="16,-40.8 16,-92.8 326,-92.8 326,-40.8 16,-40.8"/>
</g>
<!-- ChalkboardComponent -->
<g id="node1" class="node">
<title>ChalkboardComponent</title>
<polygon fill="#ffffb3" stroke="black" points="488.15,-84.8 341.85,-84.8 341.85,-48.8 488.15,-48.8 488.15,-84.8"/>
<text text-anchor="middle" x="415" y="-62.6" font-family="Times,serif" font-size="14.00">ChalkboardComponent</text>
</g>
<!-- ChalkboardModule -->
<g id="node2" class="node">
<title>ChalkboardModule</title>
<polygon fill="#8dd3c7" stroke="black" points="295.37,-149.8 292.37,-153.8 271.37,-153.8 268.37,-149.8 170.63,-149.8 170.63,-113.8 295.37,-113.8 295.37,-149.8"/>
<text text-anchor="middle" x="233" y="-127.6" font-family="Times,serif" font-size="14.00">ChalkboardModule</text>
</g>
<!-- ChalkboardComponent&#45;&gt;ChalkboardModule -->
<g id="edge1" class="edge">
<title>ChalkboardComponent&#45;&gt;ChalkboardModule</title>
<path fill="none" stroke="black" d="M415,-84.91C415,-104.14 415,-131.8 415,-131.8 415,-131.8 305.38,-131.8 305.38,-131.8"/>
<polygon fill="black" stroke="black" points="305.38,-128.3 295.38,-131.8 305.38,-135.3 305.38,-128.3"/>
</g>
<!-- ChalkboardRoutingModule -->
<g id="node3" class="node">
<title>ChalkboardRoutingModule</title>
<polygon fill="#8dd3c7" stroke="black" points="317.98,-84.8 314.98,-88.8 293.98,-88.8 290.98,-84.8 148.02,-84.8 148.02,-48.8 317.98,-48.8 317.98,-84.8"/>
<text text-anchor="middle" x="233" y="-62.6" font-family="Times,serif" font-size="14.00">ChalkboardRoutingModule</text>
</g>
<!-- ChalkboardRoutingModule&#45;&gt;ChalkboardModule -->
<g id="edge2" class="edge">
<title>ChalkboardRoutingModule&#45;&gt;ChalkboardModule</title>
<path fill="none" stroke="black" d="M233,-84.91C233,-84.91 233,-103.79 233,-103.79"/>
<polygon fill="black" stroke="black" points="229.5,-103.79 233,-113.79 236.5,-103.79 229.5,-103.79"/>
</g>
<!-- MaterialModule -->
<g id="node4" class="node">
<title>MaterialModule</title>
<polygon fill="#8dd3c7" stroke="black" points="130.47,-84.8 127.47,-88.8 106.47,-88.8 103.47,-84.8 23.53,-84.8 23.53,-48.8 130.47,-48.8 130.47,-84.8"/>
<text text-anchor="middle" x="77" y="-62.6" font-family="Times,serif" font-size="14.00">MaterialModule</text>
</g>
<!-- MaterialModule&#45;&gt;ChalkboardModule -->
<g id="edge3" class="edge">
<title>MaterialModule&#45;&gt;ChalkboardModule</title>
<path fill="none" stroke="black" d="M77,-84.91C77,-104.14 77,-131.8 77,-131.8 77,-131.8 160.45,-131.8 160.45,-131.8"/>
<polygon fill="black" stroke="black" points="160.45,-135.3 170.45,-131.8 160.45,-128.3 160.45,-135.3"/>
</g>
</g>
</svg>
