<?xml version="1.0" encoding="UTF-8" standalone="no"?>
<!DOCTYPE svg PUBLIC "-//W3C//DTD SVG 1.1//EN"
 "http://www.w3.org/Graphics/SVG/1.1/DTD/svg11.dtd">
<!-- Generated by graphviz version 2.47.3 (20210619.1520)
 -->
<!-- Title: dependencies Pages: 1 -->
<svg width="444pt" height="174pt"
 viewBox="0.00 0.00 444.00 173.80" xmlns="http://www.w3.org/2000/svg" xmlns:xlink="http://www.w3.org/1999/xlink">
<g id="graph0" class="graph" transform="scale(1 1) rotate(0) translate(4 169.8)">
<title>dependencies</title>
<polygon fill="white" stroke="transparent" points="-4,4 -4,-169.8 440,-169.8 440,4 -4,4"/>
<text text-anchor="middle" x="218" y="-8.2" font-family="sans-serif" font-size="14.00">dependencies</text>
<g id="clust1" class="cluster">
<title>cluster_HelpModule</title>
<polygon fill="none" stroke="black" stroke-dasharray="1,5" points="8,-32.8 8,-157.8 428,-157.8 428,-32.8 8,-32.8"/>
</g>
<g id="clust4" class="cluster">
<title>cluster_HelpModule_imports</title>
<polygon fill="none" stroke="black" points="148,-40.8 148,-92.8 420,-92.8 420,-40.8 148,-40.8"/>
</g>
<g id="clust2" class="cluster">
<title>cluster_HelpModule_declarations</title>
<polygon fill="none" stroke="black" points="16,-40.8 16,-92.8 140,-92.8 140,-40.8 16,-40.8"/>
</g>
<!-- HelpComponent -->
<g id="node1" class="node">
<title>HelpComponent</title>
<polygon fill="#ffffb3" stroke="black" points="132.05,-84.8 23.95,-84.8 23.95,-48.8 132.05,-48.8 132.05,-84.8"/>
<text text-anchor="middle" x="78" y="-62.6" font-family="Times,serif" font-size="14.00">HelpComponent</text>
</g>
<!-- HelpModule -->
<g id="node2" class="node">
<title>HelpModule</title>
<polygon fill="#8dd3c7" stroke="black" points="252.26,-149.8 249.26,-153.8 228.26,-153.8 225.26,-149.8 165.74,-149.8 165.74,-113.8 252.26,-113.8 252.26,-149.8"/>
<text text-anchor="middle" x="209" y="-127.6" font-family="Times,serif" font-size="14.00">HelpModule</text>
</g>
<!-- HelpComponent&#45;&gt;HelpModule -->
<g id="edge1" class="edge">
<title>HelpComponent&#45;&gt;HelpModule</title>
<path fill="none" stroke="black" d="M78,-84.91C78,-104.14 78,-131.8 78,-131.8 78,-131.8 155.38,-131.8 155.38,-131.8"/>
<polygon fill="black" stroke="black" points="155.38,-135.3 165.38,-131.8 155.38,-128.3 155.38,-135.3"/>
</g>
<!-- HelpRoutingModule -->
<g id="node3" class="node">
<title>HelpRoutingModule</title>
<polygon fill="#8dd3c7" stroke="black" points="411.88,-84.8 408.88,-88.8 387.88,-88.8 384.88,-84.8 280.12,-84.8 280.12,-48.8 411.88,-48.8 411.88,-84.8"/>
<text text-anchor="middle" x="346" y="-62.6" font-family="Times,serif" font-size="14.00">HelpRoutingModule</text>
</g>
<!-- HelpRoutingModule&#45;&gt;HelpModule -->
<g id="edge2" class="edge">
<title>HelpRoutingModule&#45;&gt;HelpModule</title>
<path fill="none" stroke="black" d="M346,-84.91C346,-104.14 346,-131.8 346,-131.8 346,-131.8 262.35,-131.8 262.35,-131.8"/>
<polygon fill="black" stroke="black" points="262.35,-128.3 252.35,-131.8 262.35,-135.3 262.35,-128.3"/>
</g>
<!-- MaterialModule -->
<g id="node4" class="node">
<title>MaterialModule</title>
<polygon fill="#8dd3c7" stroke="black" points="262.47,-84.8 259.47,-88.8 238.47,-88.8 235.47,-84.8 155.53,-84.8 155.53,-48.8 262.47,-48.8 262.47,-84.8"/>
<text text-anchor="middle" x="209" y="-62.6" font-family="Times,serif" font-size="14.00">MaterialModule</text>
</g>
<!-- MaterialModule&#45;&gt;HelpModule -->
<g id="edge3" class="edge">
<title>MaterialModule&#45;&gt;HelpModule</title>
<path fill="none" stroke="black" d="M209,-84.91C209,-84.91 209,-103.79 209,-103.79"/>
<polygon fill="black" stroke="black" points="205.5,-103.79 209,-113.79 212.5,-103.79 205.5,-103.79"/>
</g>
</g>
</svg>
