<?xml version="1.0" encoding="UTF-8" standalone="no"?>
<!DOCTYPE svg PUBLIC "-//W3C//DTD SVG 1.1//EN"
 "http://www.w3.org/Graphics/SVG/1.1/DTD/svg11.dtd">
<!-- Generated by graphviz version 2.47.3 (20210619.1520)
 -->
<!-- Title: dependencies Pages: 1 -->
<svg width="540pt" height="174pt"
 viewBox="0.00 0.00 540.00 173.80" xmlns="http://www.w3.org/2000/svg" xmlns:xlink="http://www.w3.org/1999/xlink">
<g id="graph0" class="graph" transform="scale(1 1) rotate(0) translate(4 169.8)">
<title>dependencies</title>
<polygon fill="white" stroke="transparent" points="-4,4 -4,-169.8 536,-169.8 536,4 -4,4"/>
<text text-anchor="middle" x="266" y="-8.2" font-family="sans-serif" font-size="14.00">dependencies</text>
<g id="clust1" class="cluster">
<title>cluster_ColourMatchModule</title>
<polygon fill="none" stroke="black" stroke-dasharray="1,5" points="8,-32.8 8,-157.8 524,-157.8 524,-32.8 8,-32.8"/>
</g>
<g id="clust2" class="cluster">
<title>cluster_ColourMatchModule_declarations</title>
<polygon fill="none" stroke="black" points="344,-40.8 344,-92.8 516,-92.8 516,-40.8 344,-40.8"/>
</g>
<g id="clust4" class="cluster">
<title>cluster_ColourMatchModule_imports</title>
<polygon fill="none" stroke="black" points="16,-40.8 16,-92.8 336,-92.8 336,-40.8 16,-40.8"/>
</g>
<!-- ColourMatchComponent -->
<g id="node1" class="node">
<title>ColourMatchComponent</title>
<polygon fill="#ffffb3" stroke="black" points="507.98,-84.8 352.02,-84.8 352.02,-48.8 507.98,-48.8 507.98,-84.8"/>
<text text-anchor="middle" x="430" y="-62.6" font-family="Times,serif" font-size="14.00">ColourMatchComponent</text>
</g>
<!-- ColourMatchModule -->
<g id="node2" class="node">
<title>ColourMatchModule</title>
<polygon fill="#8dd3c7" stroke="black" points="305.2,-149.8 302.2,-153.8 281.2,-153.8 278.2,-149.8 170.8,-149.8 170.8,-113.8 305.2,-113.8 305.2,-149.8"/>
<text text-anchor="middle" x="238" y="-127.6" font-family="Times,serif" font-size="14.00">ColourMatchModule</text>
</g>
<!-- ColourMatchComponent&#45;&gt;ColourMatchModule -->
<g id="edge1" class="edge">
<title>ColourMatchComponent&#45;&gt;ColourMatchModule</title>
<path fill="none" stroke="black" d="M430,-84.91C430,-104.14 430,-131.8 430,-131.8 430,-131.8 315.15,-131.8 315.15,-131.8"/>
<polygon fill="black" stroke="black" points="315.15,-128.3 305.15,-131.8 315.15,-135.3 315.15,-128.3"/>
</g>
<!-- ColourMatchRoutingModule -->
<g id="node3" class="node">
<title>ColourMatchRoutingModule</title>
<polygon fill="#8dd3c7" stroke="black" points="327.82,-84.8 324.82,-88.8 303.82,-88.8 300.82,-84.8 148.18,-84.8 148.18,-48.8 327.82,-48.8 327.82,-84.8"/>
<text text-anchor="middle" x="238" y="-62.6" font-family="Times,serif" font-size="14.00">ColourMatchRoutingModule</text>
</g>
<!-- ColourMatchRoutingModule&#45;&gt;ColourMatchModule -->
<g id="edge2" class="edge">
<title>ColourMatchRoutingModule&#45;&gt;ColourMatchModule</title>
<path fill="none" stroke="black" d="M238,-84.91C238,-84.91 238,-103.79 238,-103.79"/>
<polygon fill="black" stroke="black" points="234.5,-103.79 238,-113.79 241.5,-103.79 234.5,-103.79"/>
</g>
<!-- MaterialModule -->
<g id="node4" class="node">
<title>MaterialModule</title>
<polygon fill="#8dd3c7" stroke="black" points="130.47,-84.8 127.47,-88.8 106.47,-88.8 103.47,-84.8 23.53,-84.8 23.53,-48.8 130.47,-48.8 130.47,-84.8"/>
<text text-anchor="middle" x="77" y="-62.6" font-family="Times,serif" font-size="14.00">MaterialModule</text>
</g>
<!-- MaterialModule&#45;&gt;ColourMatchModule -->
<g id="edge3" class="edge">
<title>MaterialModule&#45;&gt;ColourMatchModule</title>
<path fill="none" stroke="black" d="M77,-84.91C77,-104.14 77,-131.8 77,-131.8 77,-131.8 160.65,-131.8 160.65,-131.8"/>
<polygon fill="black" stroke="black" points="160.65,-135.3 170.65,-131.8 160.65,-128.3 160.65,-135.3"/>
</g>
</g>
</svg>
