<?xml version="1.0" encoding="UTF-8" standalone="no"?>
<!DOCTYPE svg PUBLIC "-//W3C//DTD SVG 1.1//EN"
 "http://www.w3.org/Graphics/SVG/1.1/DTD/svg11.dtd">
<!-- Generated by graphviz version 2.47.3 (20210619.1520)
 -->
<!-- Title: dependencies Pages: 1 -->
<svg width="1265pt" height="247pt"
 viewBox="0.00 0.00 1265.00 246.80" xmlns="http://www.w3.org/2000/svg" xmlns:xlink="http://www.w3.org/1999/xlink">
<g id="graph0" class="graph" transform="scale(1 1) rotate(0) translate(4 242.8)">
<title>dependencies</title>
<polygon fill="white" stroke="transparent" points="-4,4 -4,-242.8 1261,-242.8 1261,4 -4,4"/>
<text text-anchor="middle" x="628.5" y="-8.2" font-family="sans-serif" font-size="14.00">dependencies</text>
<g id="clust1" class="cluster">
<title>cluster_AppModule</title>
<polygon fill="none" stroke="black" stroke-dasharray="1,5" points="8,-32.8 8,-230.8 1249,-230.8 1249,-32.8 8,-32.8"/>
</g>
<g id="clust2" class="cluster">
<title>cluster_AppModule_declarations</title>
<polygon fill="none" stroke="black" points="843,-40.8 843,-92.8 1241,-92.8 1241,-40.8 843,-40.8"/>
</g>
<g id="clust6" class="cluster">
<title>cluster_AppModule_imports</title>
<polygon fill="none" stroke="black" points="16,-40.8 16,-92.8 835,-92.8 835,-40.8 16,-40.8"/>
</g>
<g id="clust8" class="cluster">
<title>cluster_AppModule_bootstrap</title>
<polygon fill="none" stroke="black" points="701,-170.8 701,-222.8 825,-222.8 825,-170.8 701,-170.8"/>
</g>
<!-- AppComponent -->
<g id="node1" class="node">
<title>AppComponent</title>
<polygon fill="#ffffb3" stroke="black" points="1232.94,-84.8 1127.06,-84.8 1127.06,-48.8 1232.94,-48.8 1232.94,-84.8"/>
<text text-anchor="middle" x="1180" y="-62.6" font-family="Times,serif" font-size="14.00">AppComponent</text>
</g>
<!-- AppModule -->
<g id="node4" class="node">
<title>AppModule</title>
<polygon fill="#8dd3c7" stroke="black" points="804.66,-149.8 801.66,-153.8 780.66,-153.8 777.66,-149.8 721.34,-149.8 721.34,-113.8 804.66,-113.8 804.66,-149.8"/>
<text text-anchor="middle" x="763" y="-127.6" font-family="Times,serif" font-size="14.00">AppModule</text>
</g>
<!-- AppComponent&#45;&gt;AppModule -->
<g id="edge1" class="edge">
<title>AppComponent&#45;&gt;AppModule</title>
<path fill="none" stroke="black" d="M1180,-85.09C1180,-107.01 1180,-140.8 1180,-140.8 1180,-140.8 814.89,-140.8 814.89,-140.8"/>
<polygon fill="black" stroke="black" points="814.89,-137.3 804.89,-140.8 814.89,-144.3 814.89,-137.3"/>
</g>
<!-- FooterComponent -->
<g id="node2" class="node">
<title>FooterComponent</title>
<polygon fill="#ffffb3" stroke="black" points="1108.88,-84.8 991.12,-84.8 991.12,-48.8 1108.88,-48.8 1108.88,-84.8"/>
<text text-anchor="middle" x="1050" y="-62.6" font-family="Times,serif" font-size="14.00">FooterComponent</text>
</g>
<!-- FooterComponent&#45;&gt;AppModule -->
<g id="edge2" class="edge">
<title>FooterComponent&#45;&gt;AppModule</title>
<path fill="none" stroke="black" d="M1050,-84.91C1050,-104.14 1050,-131.8 1050,-131.8 1050,-131.8 814.73,-131.8 814.73,-131.8"/>
<polygon fill="black" stroke="black" points="814.73,-128.3 804.73,-131.8 814.73,-135.3 814.73,-128.3"/>
</g>
<!-- HeaderComponent -->
<g id="node3" class="node">
<title>HeaderComponent</title>
<polygon fill="#ffffb3" stroke="black" points="972.74,-84.8 851.26,-84.8 851.26,-48.8 972.74,-48.8 972.74,-84.8"/>
<text text-anchor="middle" x="912" y="-62.6" font-family="Times,serif" font-size="14.00">HeaderComponent</text>
</g>
<!-- HeaderComponent&#45;&gt;AppModule -->
<g id="edge3" class="edge">
<title>HeaderComponent&#45;&gt;AppModule</title>
<path fill="none" stroke="black" d="M912,-84.83C912,-101.2 912,-122.8 912,-122.8 912,-122.8 814.9,-122.8 814.9,-122.8"/>
<polygon fill="black" stroke="black" points="814.9,-119.3 804.9,-122.8 814.9,-126.3 814.9,-119.3"/>
</g>
<!-- AppComponent  -->
<g id="node9" class="node">
<title>AppComponent </title>
<polygon fill="#80b1d3" stroke="black" points="817.44,-214.8 708.56,-214.8 708.56,-178.8 817.44,-178.8 817.44,-214.8"/>
<text text-anchor="middle" x="763" y="-192.6" font-family="Times,serif" font-size="14.00">AppComponent </text>
</g>
<!-- AppModule&#45;&gt;AppComponent  -->
<g id="edge8" class="edge">
<title>AppModule&#45;&gt;AppComponent </title>
<path fill="none" stroke="black" stroke-dasharray="1,5" d="M763,-149.91C763,-149.91 763,-168.79 763,-168.79"/>
<polygon fill="black" stroke="black" points="759.5,-168.79 763,-178.79 766.5,-168.79 759.5,-168.79"/>
</g>
<!-- AppRoutingModule -->
<g id="node5" class="node">
<title>AppRoutingModule</title>
<polygon fill="#8dd3c7" stroke="black" points="827.27,-84.8 824.27,-88.8 803.27,-88.8 800.27,-84.8 698.73,-84.8 698.73,-48.8 827.27,-48.8 827.27,-84.8"/>
<text text-anchor="middle" x="763" y="-62.6" font-family="Times,serif" font-size="14.00">AppRoutingModule</text>
</g>
<!-- AppRoutingModule&#45;&gt;AppModule -->
<g id="edge4" class="edge">
<title>AppRoutingModule&#45;&gt;AppModule</title>
<path fill="none" stroke="black" d="M763,-84.91C763,-84.91 763,-103.79 763,-103.79"/>
<polygon fill="black" stroke="black" points="759.5,-103.79 763,-113.79 766.5,-103.79 759.5,-103.79"/>
</g>
<!-- provideAuth(() =&gt; getAuth()) -->
<g id="node6" class="node">
<title>provideAuth(() =&gt; getAuth())</title>
<polygon fill="#8dd3c7" stroke="black" points="680.12,-84.8 677.12,-88.8 656.12,-88.8 653.12,-84.8 497.88,-84.8 497.88,-48.8 680.12,-48.8 680.12,-84.8"/>
<text text-anchor="middle" x="589" y="-62.6" font-family="Times,serif" font-size="14.00">provideAuth(() =&gt; getAuth())</text>
</g>
<!-- provideAuth(() =&gt; getAuth())&#45;&gt;AppModule -->
<g id="edge5" class="edge">
<title>provideAuth(() =&gt; getAuth())&#45;&gt;AppModule</title>
<path fill="none" stroke="black" d="M589,-84.83C589,-101.2 589,-122.8 589,-122.8 589,-122.8 711.32,-122.8 711.32,-122.8"/>
<polygon fill="black" stroke="black" points="711.32,-126.3 721.32,-122.8 711.32,-119.3 711.32,-126.3"/>
</g>
<!-- provideFirestore(() =&gt; getFirestore()) -->
<g id="node7" class="node">
<title>provideFirestore(() =&gt; getFirestore())</title>
<polygon fill="#8dd3c7" stroke="black" points="480.14,-84.8 477.14,-88.8 456.14,-88.8 453.14,-84.8 253.86,-84.8 253.86,-48.8 480.14,-48.8 480.14,-84.8"/>
<text text-anchor="middle" x="367" y="-62.6" font-family="Times,serif" font-size="14.00">provideFirestore(() =&gt; getFirestore())</text>
</g>
<!-- provideFirestore(() =&gt; getFirestore())&#45;&gt;AppModule -->
<g id="edge6" class="edge">
<title>provideFirestore(() =&gt; getFirestore())&#45;&gt;AppModule</title>
<path fill="none" stroke="black" d="M367,-84.91C367,-104.14 367,-131.8 367,-131.8 367,-131.8 711,-131.8 711,-131.8"/>
<polygon fill="black" stroke="black" points="711,-135.3 721,-131.8 711,-128.3 711,-135.3"/>
</g>
<!-- provideStorage(() =&gt; getStorage()) -->
<g id="node8" class="node">
<title>provideStorage(() =&gt; getStorage())</title>
<polygon fill="#8dd3c7" stroke="black" points="236.15,-84.8 233.15,-88.8 212.15,-88.8 209.15,-84.8 23.85,-84.8 23.85,-48.8 236.15,-48.8 236.15,-84.8"/>
<text text-anchor="middle" x="130" y="-62.6" font-family="Times,serif" font-size="14.00">provideStorage(() =&gt; getStorage())</text>
</g>
<!-- provideStorage(() =&gt; getStorage())&#45;&gt;AppModule -->
<g id="edge7" class="edge">
<title>provideStorage(() =&gt; getStorage())&#45;&gt;AppModule</title>
<path fill="none" stroke="black" d="M130,-85.09C130,-107.01 130,-140.8 130,-140.8 130,-140.8 710.98,-140.8 710.98,-140.8"/>
<polygon fill="black" stroke="black" points="710.98,-144.3 720.98,-140.8 710.98,-137.3 710.98,-144.3"/>
</g>
</g>
</svg>
