<?xml version="1.0" encoding="UTF-8" standalone="no"?>
<!DOCTYPE svg PUBLIC "-//W3C//DTD SVG 1.1//EN"
 "http://www.w3.org/Graphics/SVG/1.1/DTD/svg11.dtd">
<!-- Generated by graphviz version 2.47.3 (20210619.1520)
 -->
<!-- Title: dependencies Pages: 1 -->
<svg width="468pt" height="174pt"
 viewBox="0.00 0.00 468.00 173.80" xmlns="http://www.w3.org/2000/svg" xmlns:xlink="http://www.w3.org/1999/xlink">
<g id="graph0" class="graph" transform="scale(1 1) rotate(0) translate(4 169.8)">
<title>dependencies</title>
<polygon fill="white" stroke="transparent" points="-4,4 -4,-169.8 464,-169.8 464,4 -4,4"/>
<text text-anchor="middle" x="230" y="-8.2" font-family="sans-serif" font-size="14.00">dependencies</text>
<g id="clust1" class="cluster">
<title>cluster_GamesModule</title>
<polygon fill="none" stroke="black" stroke-dasharray="1,5" points="8,-32.8 8,-157.8 452,-157.8 452,-32.8 8,-32.8"/>
</g>
<g id="clust2" class="cluster">
<title>cluster_GamesModule_declarations</title>
<polygon fill="none" stroke="black" points="308,-40.8 308,-92.8 444,-92.8 444,-40.8 308,-40.8"/>
</g>
<g id="clust4" class="cluster">
<title>cluster_GamesModule_imports</title>
<polygon fill="none" stroke="black" points="16,-40.8 16,-92.8 300,-92.8 300,-40.8 16,-40.8"/>
</g>
<!-- GamesComponent -->
<g id="node1" class="node">
<title>GamesComponent</title>
<polygon fill="#ffffb3" stroke="black" points="436.2,-84.8 315.8,-84.8 315.8,-48.8 436.2,-48.8 436.2,-84.8"/>
<text text-anchor="middle" x="376" y="-62.6" font-family="Times,serif" font-size="14.00">GamesComponent</text>
</g>
<!-- GamesModule -->
<g id="node2" class="node">
<title>GamesModule</title>
<polygon fill="#8dd3c7" stroke="black" points="269.42,-149.8 266.42,-153.8 245.42,-153.8 242.42,-149.8 170.58,-149.8 170.58,-113.8 269.42,-113.8 269.42,-149.8"/>
<text text-anchor="middle" x="220" y="-127.6" font-family="Times,serif" font-size="14.00">GamesModule</text>
</g>
<!-- GamesComponent&#45;&gt;GamesModule -->
<g id="edge1" class="edge">
<title>GamesComponent&#45;&gt;GamesModule</title>
<path fill="none" stroke="black" d="M376,-84.91C376,-104.14 376,-131.8 376,-131.8 376,-131.8 279.36,-131.8 279.36,-131.8"/>
<polygon fill="black" stroke="black" points="279.36,-128.3 269.36,-131.8 279.36,-135.3 279.36,-128.3"/>
</g>
<!-- GamesRoutingModule -->
<g id="node3" class="node">
<title>GamesRoutingModule</title>
<polygon fill="#8dd3c7" stroke="black" points="291.54,-84.8 288.54,-88.8 267.54,-88.8 264.54,-84.8 148.46,-84.8 148.46,-48.8 291.54,-48.8 291.54,-84.8"/>
<text text-anchor="middle" x="220" y="-62.6" font-family="Times,serif" font-size="14.00">GamesRoutingModule</text>
</g>
<!-- GamesRoutingModule&#45;&gt;GamesModule -->
<g id="edge2" class="edge">
<title>GamesRoutingModule&#45;&gt;GamesModule</title>
<path fill="none" stroke="black" d="M220,-84.91C220,-84.91 220,-103.79 220,-103.79"/>
<polygon fill="black" stroke="black" points="216.5,-103.79 220,-113.79 223.5,-103.79 216.5,-103.79"/>
</g>
<!-- MaterialModule -->
<g id="node4" class="node">
<title>MaterialModule</title>
<polygon fill="#8dd3c7" stroke="black" points="130.47,-84.8 127.47,-88.8 106.47,-88.8 103.47,-84.8 23.53,-84.8 23.53,-48.8 130.47,-48.8 130.47,-84.8"/>
<text text-anchor="middle" x="77" y="-62.6" font-family="Times,serif" font-size="14.00">MaterialModule</text>
</g>
<!-- MaterialModule&#45;&gt;GamesModule -->
<g id="edge3" class="edge">
<title>MaterialModule&#45;&gt;GamesModule</title>
<path fill="none" stroke="black" d="M77,-84.91C77,-104.14 77,-131.8 77,-131.8 77,-131.8 160.79,-131.8 160.79,-131.8"/>
<polygon fill="black" stroke="black" points="160.79,-135.3 170.79,-131.8 160.79,-128.3 160.79,-135.3"/>
</g>
</g>
</svg>
